<?xml version="1.0" standalone="no"?>
<!DOCTYPE svg PUBLIC "-//W3C//DTD SVG 20010904//EN" "http://www.w3.org/TR/2001/REC-SVG-20010904/DTD/svg10.dtd">
<svg version="1.0" xmlns="http://www.w3.org/2000/svg" width="392.000000pt" height="206.000000pt" viewBox="0 0 392.000000 206.000000" preserveAspectRatio="xMidYMid meet">
<g transform="translate(0.000000,206.000000) scale(0.100000,-0.100000)" fill="#000000" stroke="none">
<path d="M2984 1838 l-19 -23 25 20 c14 11 27 21 29 22 2 2 0 3 -6 3 -5 0 -18 -10 -29 -22z"/>
<path d="M3403 1785 c0 -8 4 -12 9 -9 5 3 6 10 3 15 -9 13 -12 11 -12 -6z"/>
<path d="M3114 1729 c-4 -7 -3 -9 4 -5 5 3 13 0 15 -6 4 -9 6 -10 6 -1 1 17 -16 25 -25 12z"/>
<path d="M3089 1693 c-13 -16 -12 -17 4 -4 9 7 17 15 17 17 0 8 -8 3 -21 -13z"/>
<path d="M3263 1675 c0 -8 4 -12 9 -9 5 3 6 10 3 15 -9 13 -12 11 -12 -6z"/>
<path d="M3433 1303 c-77 -131 -146 -255 -153 -277 -18 -56 -8 -181 17 -231 28 -54 88 -112 148 -143 70 -36 197 -38 267 -3 97 47 170 147 184 248 11 89 -8 144 -114 315 l-97 158 -5 -241 -5 -241 -33 -29 c-37 -33 -71 -37 -112 -12 -31 18 -50 51 -50 88 0 13 36 126 80 252 44 125 80 234 80 242 0 11 -57 111 -64 111 -1 0 -65 -107 -143 -237z"/>
<path d="M2945 1489 c-4 -6 -5 -12 -2 -15 2 -3 7 2 10 11 7 17 1 20 -8 4z"/>
<path d="M3326 1283 c-6 -14 -5 -15 5 -6 7 7 10 15 7 18 -3 3 -9 -2 -12 -12z"/>
<path d="M430 1046 l0 -244 26 -31 c25 -30 75 -51 122 -51 19 0 22 5 22 35 0 25 -4 35 -15 35 -9 0 -27 11 -40 25 l-25 24 0 226 0 225 -45 0 -45 0 0 -244z"/>
<path d="M670 1005 l0 -285 101 0 c124 0 181 14 224 54 76 72 63 200 -25 236 l-30 12 29 33 c51 59 52 130 2 184 -36 38 -86 51 -203 51 l-98 0 0 -285z m221 179 c12 -11 19 -31 19 -55 0 -52 -35 -79 -101 -79 l-49 0 0 73 c0 41 3 77 8 81 12 13 103 -2 123 -20z m28 -240 c41 -34 42 -75 1 -115 -27 -28 -34 -30 -92 -27 l-63 3 -3 69 c-2 38 -1 75 2 83 4 9 24 13 65 13 49 0 65 -4 90 -26z"/>
<path d="M2110 1005 l0 -285 45 0 45 0 0 55 c0 47 4 59 31 90 17 19 35 35 39 35 4 0 32 -40 61 -90 l53 -90 58 0 57 0 -76 123 c-41 67 -77 126 -80 130 -2 4 28 41 68 82 l72 75 -59 0 -60 0 -73 -80 c-40 -44 -77 -80 -82 -80 -5 0 -9 68 -9 160 l0 160 -45 0 -45 0 0 -285z"/>
<path d="M3206 1162 c-3 -5 1 -9 9 -9 8 0 12 4 9 9 -3 4 -7 8 -9 8 -2 0 -6 -4 -9 -8z"/>
<path d="M138 1132 c-48 -3 -48 -3 -48 -38 l0 -36 40 6 c65 9 120 -22 120 -68 0 -22 -5 -24 -72 -28 -117 -8 -171 -48 -171 -129 0 -48 25 -87 74 -112 40 -21 97 -16 146 13 32 19 33 19 43 0 8 -14 21 -20 48 -20 l37 0 -3 162 c-4 177 -12 207 -60 231 -33 17 -91 24 -154 19z m112 -271 c0 -31 -5 -53 -15 -61 -22 -18 -92 -18 -109 0 -49 52 -10 110 74 110 l50 0 0 -49z"/>
<path d="M1210 1131 c-43 -6 -45 -8 -46 -39 l-1 -33 59 2 c66 2 94 -15 100 -61 3 -24 1 -25 -73 -31 -124 -10 -179 -61 -164 -152 17 -95 122 -133 218 -78 26 15 29 15 38 -1 7 -13 22 -18 50 -18 l41 0 -4 163 c-2 135 -6 168 -21 190 -32 48 -104 70 -197 58z m118 -255 c6 -53 -5 -74 -47 -87 -57 -17 -95 3 -99 53 -4 49 25 70 93 66 47 -3 50 -5 53 -32z"/>
<path d="M1615 1131 c-102 -18 -115 -47 -115 -256 l0 -155 50 0 50 0 0 148 c0 172 7 192 68 192 36 0 38 2 37 32 -1 28 -21 49 -45 46 -3 0 -23 -4 -45 -7z"/>
<path d="M1818 1132 c-47 -3 -48 -4 -48 -37 l0 -34 53 1 c28 1 62 -4 75 -11 23 -12 46 -56 37 -71 -2 -4 -37 -9 -77 -12 -40 -3 -88 -12 -105 -22 -65 -33 -84 -129 -38 -185 46 -54 111 -61 193 -22 31 14 34 14 43 -2 7 -11 22 -17 47 -17 l37 0 -3 157 c-4 173 -14 213 -61 237 -32 16 -90 23 -153 18z m120 -268 c4 -52 -23 -79 -80 -79 -30 0 -45 6 -59 24 -25 31 -24 47 6 77 22 21 33 25 78 22 l52 -3 3 -41z"/>
<path d="M2630 1131 c-42 -6 -45 -8 -48 -38 l-3 -32 54 1 c69 2 107 -20 107 -61 0 -28 -1 -28 -72 -33 -40 -3 -88 -12 -105 -22 -63 -32 -82 -115 -40 -177 39 -58 129 -72 199 -31 28 16 30 16 39 0 7 -13 22 -18 49 -18 l40 0 -3 163 c-3 138 -6 166 -21 190 -33 49 -103 70 -196 58z m117 -246 c2 -11 1 -35 -2 -52 -5 -28 -12 -34 -44 -43 -44 -12 -85 -1 -95 25 -23 61 12 97 88 93 40 -2 50 -7 53 -23z"/>
<path d="M1500 370 l0 -240 88 0 c106 0 150 11 184 47 59 62 56 140 -6 189 l-33 26 24 24 c34 34 32 103 -4 144 -33 37 -79 49 -180 50 l-73 0 0 -240z m163 159 c68 -36 38 -119 -43 -119 l-40 0 0 65 0 65 31 0 c17 0 40 -5 52 -11z m47 -214 c25 -23 26 -56 2 -85 -14 -18 -32 -24 -75 -28 l-57 -4 0 72 0 72 55 -4 c34 -3 62 -12 75 -23z"/>
<path d="M2550 365 l0 -235 45 0 45 0 0 48 c0 40 5 53 29 76 l28 27 44 -75 44 -76 48 0 c26 0 47 3 47 6 0 4 -27 51 -60 106 -33 54 -60 101 -60 104 0 3 25 34 55 67 l55 62 -48 3 c-47 3 -47 3 -114 -70 l-67 -73 -1 133 0 132 -45 0 -45 0 0 -235z"/>
<path d="M1923 473 c-7 -2 -13 -18 -13 -33 0 -27 2 -28 33 -23 42 6 97 -20 97 -46 0 -21 -26 -31 -81 -31 -44 0 -100 -36 -113 -73 -14 -39 4 -96 37 -121 34 -25 104 -27 140 -3 22 14 27 14 37 2 7 -8 25 -15 41 -15 l29 0 0 125 c0 150 -12 188 -64 210 -34 14 -117 19 -143 8z m121 -199 c17 -45 -12 -84 -65 -84 -31 0 -62 31 -57 57 7 37 109 60 122 27z"/>
<path d="M2200 300 l0 -170 40 0 40 0 0 123 c0 123 0 124 25 135 35 16 49 15 68 -6 14 -15 17 -41 17 -135 l0 -117 45 0 45 0 0 131 c0 131 -6 161 -39 186 -20 16 -106 17 -133 2 -17 -9 -24 -8 -33 5 -7 9 -26 16 -44 16 l-31 0 0 -170z"/>
</g>
</svg>